# xmcd
#
# Track frame offsets:
#	150
#	11291
#	28646
#	45744
#	62016
#	76558
#	89644
#	105038
#	121484
#	141944
#	156319
#	170385
#
# Disc length: 2462 seconds
#
# Revision: 1
# Processed by: cddbd v1.5.2PL0 Copyright (c) Steve Scherf et al.
# Submitted via: audiograbber 1.83.01
#
DISCID=8a099c0c
DTITLE=Peter Kern (Cairn) - Lovepower
DYEAR=2007
DGENRE=
TTITLE0=King Of The World
TTITLE1=Treat Me Like A Star (Tribute To Erich)
TTITLE2=Privacy
TTITLE3=A Little More Everyday
TTITLE4=Bluespreacher
TTITLE5=Happy Is The Fool
TTITLE6=Early One Morning
TTITLE7=Music's My Religion
TTITLE8=All That's Left Is To Forgive
TTITLE9=Lovepower
TTITLE10=Let It Shine On Me
TTITLE11=No Living Without Dying
EXTD=
EXTT0=
EXTT1=
EXTT2=
EXTT3=
EXTT4=
EXTT5=
EXTT6=
EXTT7=
EXTT8=
EXTT9=
EXTT10=
EXTT11=
PLAYORDER=
